# xmcd
#
# Track frame offsets:
# 150
# 12948
# 25468
# 33884
# 43887
# 56607
# 66548
# 78088
# 90193
# 97877
# 108020
# 118188
# 129294
# 140577
# 153040
# 163305
# 174671
# 184163
# 196058
# 207161
#
# Disc length: 2901 seconds
#
#
# Revision: 1
# Processed by: cddbd v1.5.1PL2 Copyright (c) Steve Scherf et al.
# Submitted via: FreeRIP 2.945 
#
DISCID=030b5314
DTITLE=Johnny Cash - The Legend
DYEAR=2000
DGENRE=Country
TTITLE0=Folsom Prison Blues
TTITLE1=I Walk The Line
TTITLE2=Guess Things Happen That Way
TTITLE3=Ballad Of A Teenage Queen
TTITLE4=Next In Line
TTITLE5=Rock Island Line
TTITLE6=Big River
TTITLE7=You're The Nearest Thing To Heaven
TTITLE8=Come To Stranger
TTITLE9=Hey Porter
TTITLE10=Get Rythem
TTITLE11=Cry, Cry, Cry
TTITLE12=Mean Eyed Cat
TTITLE13=Give My Love To Rose
TTITLE14=The Way Of A Woman In Love
TTITLE15=Oh Lonesome Me
TTITLE16=Down The Street To 301
TTITLE17=So Doggone Lonesome
TTITLE18=I Love You Because
TTITLE19=There You Go
EXTD=Twin Pak Music
EXTT0=
EXTT1=
EXTT2=
EXTT3=
EXTT4=
EXTT5=
EXTT6=
EXTT7=
EXTT8=
EXTT9=
EXTT10=
EXTT11=
EXTT12=
EXTT13=
EXTT14=
EXTT15=
EXTT16=
EXTT17=
EXTT18=
EXTT19=
PLAYORDER=
